<mxfile host="Electron" modified="2023-06-04T20:25:25.043Z" agent="Mozilla/5.0 (X11; Linux x86_64) AppleWebKit/537.36 (KHTML, like Gecko) draw.io/21.2.8 Chrome/112.0.5615.165 Electron/24.2.0 Safari/537.36" etag="OWrqfSLqhRR5FLGdxbBK" version="21.2.8" type="device">
  <diagram id="C5RBs43oDa-KdzZeNtuy" name="Page-1">
    <mxGraphModel dx="462" dy="822" grid="1" gridSize="10" guides="1" tooltips="1" connect="1" arrows="1" fold="1" page="1" pageScale="1" pageWidth="827" pageHeight="1169" math="0" shadow="0">
      <root>
        <mxCell id="WIyWlLk6GJQsqaUBKTNV-0" />
        <mxCell id="WIyWlLk6GJQsqaUBKTNV-1" parent="WIyWlLk6GJQsqaUBKTNV-0" />
        <mxCell id="Mwe7GgveKDj1-RRzGcKP-4" style="edgeStyle=orthogonalEdgeStyle;rounded=0;orthogonalLoop=1;jettySize=auto;html=1;exitX=0.5;exitY=1;exitDx=0;exitDy=0;" edge="1" parent="WIyWlLk6GJQsqaUBKTNV-1" source="Mwe7GgveKDj1-RRzGcKP-0">
          <mxGeometry relative="1" as="geometry">
            <mxPoint x="445" y="410" as="targetPoint" />
          </mxGeometry>
        </mxCell>
        <mxCell id="Mwe7GgveKDj1-RRzGcKP-0" value="restar (x : int, y: int) -&amp;gt; int:" style="rounded=0;whiteSpace=wrap;html=1;" vertex="1" parent="WIyWlLk6GJQsqaUBKTNV-1">
          <mxGeometry x="350" y="260" width="190" height="90" as="geometry" />
        </mxCell>
        <mxCell id="Mwe7GgveKDj1-RRzGcKP-8" value="" style="edgeStyle=orthogonalEdgeStyle;rounded=0;orthogonalLoop=1;jettySize=auto;html=1;" edge="1" parent="WIyWlLk6GJQsqaUBKTNV-1" source="Mwe7GgveKDj1-RRzGcKP-5" target="Mwe7GgveKDj1-RRzGcKP-7">
          <mxGeometry relative="1" as="geometry" />
        </mxCell>
        <mxCell id="Mwe7GgveKDj1-RRzGcKP-5" value="result = 0" style="rounded=1;whiteSpace=wrap;html=1;" vertex="1" parent="WIyWlLk6GJQsqaUBKTNV-1">
          <mxGeometry x="340" y="410" width="210" height="70" as="geometry" />
        </mxCell>
        <mxCell id="Mwe7GgveKDj1-RRzGcKP-10" value="" style="edgeStyle=orthogonalEdgeStyle;rounded=0;orthogonalLoop=1;jettySize=auto;html=1;" edge="1" parent="WIyWlLk6GJQsqaUBKTNV-1" source="Mwe7GgveKDj1-RRzGcKP-7" target="Mwe7GgveKDj1-RRzGcKP-9">
          <mxGeometry relative="1" as="geometry" />
        </mxCell>
        <mxCell id="Mwe7GgveKDj1-RRzGcKP-7" value="result = result + x" style="rounded=1;whiteSpace=wrap;html=1;" vertex="1" parent="WIyWlLk6GJQsqaUBKTNV-1">
          <mxGeometry x="340" y="560" width="210" height="70" as="geometry" />
        </mxCell>
        <mxCell id="Mwe7GgveKDj1-RRzGcKP-12" value="" style="edgeStyle=orthogonalEdgeStyle;rounded=0;orthogonalLoop=1;jettySize=auto;html=1;" edge="1" parent="WIyWlLk6GJQsqaUBKTNV-1" source="Mwe7GgveKDj1-RRzGcKP-9" target="Mwe7GgveKDj1-RRzGcKP-11">
          <mxGeometry relative="1" as="geometry" />
        </mxCell>
        <mxCell id="Mwe7GgveKDj1-RRzGcKP-9" value="result = result + y" style="rounded=1;whiteSpace=wrap;html=1;" vertex="1" parent="WIyWlLk6GJQsqaUBKTNV-1">
          <mxGeometry x="340" y="710" width="210" height="70" as="geometry" />
        </mxCell>
        <mxCell id="Mwe7GgveKDj1-RRzGcKP-11" value="return result" style="rounded=1;whiteSpace=wrap;html=1;" vertex="1" parent="WIyWlLk6GJQsqaUBKTNV-1">
          <mxGeometry x="340" y="860" width="210" height="70" as="geometry" />
        </mxCell>
        <mxCell id="Mwe7GgveKDj1-RRzGcKP-13" value="&lt;h1&gt;Ejercicio 2&lt;/h1&gt;&lt;div&gt;test1: x = 1 y&amp;nbsp; = 1 -&amp;gt; result = 0&lt;/div&gt;&lt;div&gt;&lt;br&gt;&lt;/div&gt;&lt;div&gt;&lt;br&gt;&lt;/div&gt;" style="text;html=1;strokeColor=none;fillColor=none;spacing=5;spacingTop=-20;whiteSpace=wrap;overflow=hidden;rounded=0;" vertex="1" parent="WIyWlLk6GJQsqaUBKTNV-1">
          <mxGeometry x="590" y="280" width="190" height="70" as="geometry" />
        </mxCell>
        <mxCell id="Mwe7GgveKDj1-RRzGcKP-14" value="&lt;h1&gt;Ejercicio 3&lt;/h1&gt;&lt;div&gt;Al ejecutar el test1, este algoritmo nos da 2. Detectamos efectivamente el error en la L3&lt;/div&gt;" style="text;html=1;strokeColor=none;fillColor=none;spacing=5;spacingTop=-20;whiteSpace=wrap;overflow=hidden;rounded=0;" vertex="1" parent="WIyWlLk6GJQsqaUBKTNV-1">
          <mxGeometry x="590" y="380" width="190" height="120" as="geometry" />
        </mxCell>
      </root>
    </mxGraphModel>
  </diagram>
</mxfile>
